# xmcd CD database file
# Copyright (C) 1993-1998 Ti Kan
# 
# Track frame offsets:
#     182
#     19100
#     44637
#     76050
#     110800
#     125850
#     141462
#     170850
#     192337
#     214800
#     242712
#     247587
#     264062
#     291025
#     313925
# 
# Disc length: 4459 seconds
# 
# Revision: 1
# Processed by: cddbd v1.4b41PL1 Copyright (c) Steve Scherf et al.
# Submitted via: DiscPlay 4.0.4
# 
DISCID=e211690f
DTITLE=Bruce Springsteen - Streets Survivor (1/2)
DYEAR=1900
DGENRE=
TTITLE0=The Lady And The Doctor
TTITLE1=4th of July, Asbury Park (Sandy)
TTITLE2=Prodigal Son
TTITLE3=Visitation At Fort Horn
TTITLE4=Growin' Up
TTITLE5=The Angel
TTITLE6=Song To The Orphans
TTITLE7=For You
TTITLE8=Hey Santa Ana
TTITLE9=Jazz Musician
TTITLE10=Camilla Horn
TTITLE11=Seaside Bar Song
TTITLE12=Arabian Night
TTITLE13=Family Song
TTITLE14=Evacuation Of The West
EXTD=
EXTT0=
EXTT1=
EXTT2=
EXTT3=
EXTT4=
EXTT5=
EXTT6=
EXTT7=
EXTT8=
EXTT9=
EXTT10=
EXTT11=
EXTT12=
EXTT13=
EXTT14=
PLAYORDER=
